<svg width="78" height="38" viewBox="0 0 78 38" fill="none" xmlns="http://www.w3.org/2000/svg">
<path d="M48 21.0312C52.3147 21.0312 55.8125 17.8832 55.8125 14C55.8125 10.1167 52.3147 6.96875 48 6.96875C43.6853 6.96875 40.1875 10.1167 40.1875 14C40.1875 15.1248 40.481 16.1878 41.0027 17.1307C41.1414 17.3812 41.1875 17.6676 41.1071 17.9379L40.6418 19.5031C40.4398 20.1826 41.1305 20.8041 41.8854 20.6224L43.6245 20.2036C43.9249 20.1313 44.2431 20.1728 44.5215 20.2975C45.569 20.7672 46.7502 21.0312 48 21.0312Z" stroke="black"/>
<g clip-path="url(#clip0_19_114)">
<path d="M45.6947 17.3926C46.0821 17.3926 46.3962 17.6764 46.3962 18.0264C46.3962 18.3765 46.0821 18.6602 45.6947 18.6602C45.3072 18.6602 44.9932 18.3765 44.9932 18.0264C44.9932 17.6764 45.3072 17.3926 45.6947 17.3926Z" stroke="black"/>
<path d="M49.9035 17.3926C50.2909 17.3926 50.605 17.6763 50.605 18.0264C50.605 18.3765 50.2909 18.6602 49.9035 18.6602C49.5161 18.6602 49.2021 18.3765 49.2021 18.0264C49.2021 17.6763 49.5161 17.3926 49.9035 17.3926Z" stroke="black"/>
<path d="M43.2389 10.7551C43.0562 10.697 42.856 10.7838 42.7917 10.949C42.7274 11.1141 42.8235 11.295 43.0062 11.3531L43.2389 10.7551ZM51.8479 13.9624L52.1914 14.0264L52.1919 14.0245L51.8479 13.9624ZM44.8567 13.9106V12.7605H44.1552V13.9106H44.8567ZM43.3611 10.7939L43.2389 10.7551L43.0062 11.3531L43.1284 11.3918L43.3611 10.7939ZM47.3022 16.6529H49.7821V16.0191H47.3022V16.6529ZM44.8567 12.7605C44.8567 12.4617 44.8571 12.2123 44.8329 12.0097C44.8077 11.8 44.7533 11.6087 44.6214 11.4343L44.0423 11.7919C44.0845 11.8477 44.1171 11.9244 44.1355 12.0779C44.1547 12.2386 44.1552 12.4478 44.1552 12.7605H44.8567ZM43.1284 11.3918C43.4406 11.491 43.6458 11.5568 43.7968 11.6237C43.9386 11.6866 44.0011 11.7375 44.0423 11.7919L44.6214 11.4343C44.4885 11.2586 44.3118 11.146 44.1058 11.0547C43.9089 10.9674 43.6576 10.8881 43.3611 10.7939L43.1284 11.3918ZM44.1552 13.9106C44.1552 14.5243 44.1616 14.9669 44.2256 15.305C44.2941 15.666 44.4307 15.9245 44.6862 16.1679L45.1952 15.7319C45.0455 15.5892 44.9647 15.4494 44.9171 15.198C44.8651 14.9238 44.8567 14.5397 44.8567 13.9106H44.1552ZM47.3022 16.0191C46.6396 16.0191 46.1799 16.0184 45.8335 15.974C45.4993 15.9311 45.3226 15.8533 45.1952 15.7319L44.6862 16.1679C44.9639 16.4326 45.3159 16.5479 45.7351 16.6015C46.1421 16.6537 46.6605 16.6529 47.3022 16.6529V16.0191ZM44.5059 12.6894H50.1789V12.0555H44.5059V12.6894ZM51.5044 13.8984L51.2707 14.9231L51.9577 15.051L52.1914 14.0264L51.5044 13.8984ZM50.1789 12.6894C50.5794 12.6894 50.9319 12.6898 51.21 12.7179C51.3482 12.7318 51.4517 12.7512 51.5244 12.7743C51.5999 12.7983 51.6119 12.8167 51.6058 12.8096L52.1618 12.4231C52.0519 12.294 51.8974 12.2209 51.7569 12.1763C51.6136 12.1308 51.4515 12.1045 51.2879 12.088C50.9626 12.0551 50.5664 12.0555 50.1789 12.0555V12.6894ZM52.1919 14.0245C52.271 13.6662 52.3382 13.3655 52.3547 13.1247C52.3716 12.8771 52.3404 12.6328 52.1618 12.4231L51.6058 12.8096C51.6348 12.8436 51.6669 12.905 51.6545 13.0857C51.6417 13.2733 51.5872 13.5238 51.504 13.9004L52.1919 14.0245ZM49.7821 16.6529C50.1383 16.6529 50.4373 16.6535 50.6782 16.6268C50.9288 16.5992 51.1573 16.5386 51.3567 16.3917L50.9136 15.9004C50.855 15.9435 50.772 15.9779 50.593 15.9977C50.4045 16.0186 50.1559 16.0191 49.7821 16.0191V16.6529ZM51.2707 14.9231C51.1952 15.2538 51.1444 15.4737 51.0838 15.6364C51.0262 15.7907 50.9721 15.8573 50.9136 15.9004L51.3567 16.3917C51.5562 16.2449 51.6679 16.0549 51.7485 15.8388C51.8261 15.6309 51.8858 15.3662 51.9577 15.051L51.2707 14.9231Z" fill="black"/>
<path d="M46.63 13.5894L46.877 14.9069" stroke="black" stroke-linecap="round"/>
<path d="M49.4491 13.5894L49.2021 14.9069" stroke="black" stroke-linecap="round"/>
</g>
<path d="M31 8H27C26.2044 8 25.4413 8.52678 24.8787 9.46447C24.3161 10.4021 24 11.6739 24 13C24 14.3261 24.3161 15.5979 24.8787 16.5355C25.4413 17.4732 26.2044 18 27 18H28C28.7956 18 29.5587 18.5268 30.1213 19.4645C30.6839 20.4021 31 21.6739 31 23C31 24.3261 30.6839 25.5979 30.1213 26.5355C29.5587 27.4732 28.7956 28 28 28H24" stroke="black" stroke-linecap="round" stroke-linejoin="round"/>
<g clip-path="url(#clip1_19_114)">
<path d="M34.2773 13H37.7227" stroke="black" stroke-linecap="round" stroke-linejoin="round"/>
<path d="M34.2773 8.17651V17.8234" stroke="black" stroke-linecap="round" stroke-linejoin="round"/>
<path d="M37.7227 8.17651V17.8234" stroke="black" stroke-linecap="round" stroke-linejoin="round"/>
<path d="M37.0336 17.8235H38.4117" stroke="black" stroke-linecap="round" stroke-linejoin="round"/>
<path d="M37.0336 8.17651H38.4117" stroke="black" stroke-linecap="round" stroke-linejoin="round"/>
<path d="M33.5883 17.8235H34.9664" stroke="black" stroke-linecap="round" stroke-linejoin="round"/>
<path d="M33.5883 8.17651H34.9664" stroke="black" stroke-linecap="round" stroke-linejoin="round"/>
</g>
<path d="M61.0688 9.09521V26.2754C61.0688 27.0928 61.2354 27.6882 61.5684 28.0615C61.9014 28.4349 62.5321 28.7074 63.4604 28.8789L63.3242 29.2422C62.1738 29.0807 61.2656 29 60.5996 29C60.0042 29 59.313 29.0807 58.5259 29.2422L58.4351 29.0908C58.6369 28.7982 58.7378 28.2633 58.7378 27.4863V11.5776C58.7378 10.1447 58.5713 9.20622 58.2383 8.76221C57.9154 8.30811 57.1938 8.08105 56.0737 8.08105L56.0132 7.64209C58.8185 7.22835 61.0739 7.02148 62.7793 7.02148C63.9499 7.02148 64.9842 7.10726 65.8823 7.27881C66.7905 7.45036 67.6079 7.73796 68.3345 8.1416C69.061 8.53516 69.616 9.08512 69.9995 9.7915C70.3931 10.4979 70.5898 11.3506 70.5898 12.3496C70.5898 13.4495 70.2316 14.4536 69.5151 15.3618C68.8088 16.2599 67.9258 16.9461 66.8662 17.4204C65.8167 17.8846 64.742 18.1167 63.6421 18.1167C63.2082 18.1167 62.8853 18.0965 62.6733 18.0562V17.5264C63.4403 17.5264 64.1466 17.4255 64.7925 17.2236C65.4484 17.0218 66.0286 16.7191 66.5332 16.3154C67.0479 15.9118 67.4465 15.382 67.729 14.7261C68.0216 14.0601 68.168 13.2982 68.168 12.4404C68.168 11.0579 67.8198 9.96305 67.1235 9.15576C66.4272 8.34847 65.3374 7.94482 63.854 7.94482C62.7642 7.94482 61.8055 8.01042 60.978 8.1416C61.0386 8.44434 61.0688 8.76221 61.0688 9.09521Z" fill="black"/>
<path fill-rule="evenodd" clip-rule="evenodd" d="M51.7656 23C49.767 23 48.8687 23.0183 48.4822 23.0313C48.2743 23.0383 48.047 23.1356 48.0136 23.3526C48.0052 23.407 48 23.4712 48 23.5469C48 23.6225 48.0052 23.6867 48.0136 23.7411C48.047 23.9581 48.2743 24.0554 48.4822 24.0624C48.8687 24.0755 49.767 24.0938 51.7656 24.0938C53.7643 24.0938 54.6625 24.0755 55.049 24.0624C55.257 24.0554 55.4843 23.9581 55.5177 23.7411C55.526 23.6867 55.5312 23.6225 55.5312 23.5469C55.5312 23.4712 55.526 23.407 55.5177 23.3526C55.4843 23.1356 55.257 23.0383 55.049 23.0313C54.6625 23.0183 53.7643 23 51.7656 23ZM52.9776 24.75C51.8494 24.75 51.2461 24.7631 50.93 24.7751C50.676 24.7847 50.4439 24.9219 50.428 25.1636C50.4254 25.2032 50.4239 25.2475 50.4239 25.2969C50.4239 25.3463 50.4254 25.3906 50.428 25.4302C50.4439 25.6719 50.676 25.8091 50.93 25.8187C51.2461 25.8307 51.8494 25.8438 52.9776 25.8438C54.1057 25.8438 54.709 25.8307 55.0252 25.8187C55.2791 25.8091 55.5112 25.6719 55.5271 25.4302C55.5297 25.3906 55.5312 25.3463 55.5312 25.2969C55.5312 25.2475 55.5297 25.2032 55.5271 25.1636C55.5112 24.9219 55.2791 24.7847 55.0252 24.7751C54.709 24.7631 54.1057 24.75 52.9776 24.75ZM52.285 26.5C50.6694 26.5 49.8921 26.5163 49.5304 26.529C49.3033 26.5371 49.0727 26.6505 49.0474 26.8786C49.042 26.927 49.0388 26.9827 49.0388 27.0469C49.0388 27.111 49.042 27.1668 49.0474 27.2151C49.0727 27.4432 49.3033 27.5567 49.5304 27.5647C49.8921 27.5775 50.6694 27.5938 52.285 27.5938C53.9007 27.5938 54.6779 27.5775 55.0397 27.5647C55.2667 27.5567 55.4974 27.4432 55.5226 27.2151C55.528 27.1668 55.5312 27.111 55.5312 27.0469C55.5312 26.9827 55.528 26.927 55.5226 26.8786C55.4974 26.6505 55.2667 26.5371 55.0397 26.529C54.6779 26.5163 53.9007 26.5 52.285 26.5ZM53.6701 28.25C52.9895 28.25 52.5753 28.2593 52.326 28.2695C52.0469 28.2809 51.8196 28.4423 51.8107 28.6933C51.8095 28.725 51.8089 28.7594 51.8089 28.7969C51.8089 28.8344 51.8095 28.8688 51.8107 28.9004C51.8196 29.1515 52.0469 29.3129 52.326 29.3243C52.5753 29.3344 52.9895 29.3438 53.6701 29.3438C54.3507 29.3438 54.7648 29.3344 55.0142 29.3243C55.2932 29.3129 55.5206 29.1515 55.5295 28.9004C55.5306 28.8688 55.5312 28.8344 55.5312 28.7969C55.5312 28.7594 55.5306 28.725 55.5295 28.6933C55.5206 28.4423 55.2932 28.2809 55.0142 28.2695C54.7648 28.2593 54.3507 28.25 53.6701 28.25Z" fill="black"/>
<path d="M17.2852 8.2832C15.7129 7.49219 14.1504 7.09668 12.5977 7.09668C11.3672 7.09668 10.2588 7.29688 9.27246 7.69727C8.28613 8.08789 7.44141 8.70801 6.73828 9.55762C6.04492 10.4072 5.5127 11.4912 5.1416 12.8096C4.77051 14.1279 4.58496 15.71 4.58496 17.5557C4.58496 18.4932 4.67773 19.3916 4.86328 20.251C5.04883 21.1104 5.3125 21.916 5.6543 22.668C6.00586 23.4102 6.43066 24.0889 6.92871 24.7041C7.43652 25.3096 8.00781 25.832 8.64258 26.2715C9.27734 26.7012 9.9707 27.0381 10.7227 27.2822C11.4844 27.5166 12.29 27.6338 13.1396 27.6338C13.7549 27.6338 14.3115 27.6045 14.8096 27.5459C15.3174 27.4873 15.7959 27.3848 16.2451 27.2383C16.6943 27.082 17.1387 26.8721 17.5781 26.6084C18.0176 26.335 18.4863 25.9883 18.9844 25.5684L19.585 26.2568C19.0088 26.6865 18.4521 27.0479 17.915 27.3408C17.3779 27.6338 16.8262 27.873 16.2598 28.0586C15.7031 28.2539 15.1123 28.3906 14.4873 28.4688C13.8623 28.5566 13.1738 28.6006 12.4219 28.6006C10.9375 28.6006 9.56055 28.332 8.29102 27.7949C7.03125 27.2578 5.94238 26.501 5.02441 25.5244C4.10645 24.5381 3.38867 23.3516 2.87109 21.9648C2.35352 20.5684 2.09473 19.0205 2.09473 17.3213C2.09473 15.583 2.37793 14.0205 2.94434 12.6338C3.52051 11.2373 4.31152 10.0508 5.31738 9.07422C6.32324 8.09766 7.50977 7.35059 8.87695 6.83301C10.2441 6.30566 11.7236 6.04199 13.3154 6.04199C15.3271 6.04199 17.251 6.54004 19.0869 7.53613C18.7744 9.11816 18.291 10.5879 17.6367 11.9453L17.2559 11.7402C17.373 11.0273 17.4316 10.3193 17.4316 9.61621C17.4316 8.99121 17.3828 8.54688 17.2852 8.2832Z" fill="black"/>
<path d="M40 27.8662V26.8662C40 26.3358 39.8156 25.8271 39.4874 25.452C39.1592 25.0769 38.7141 24.8662 38.25 24.8662H34.75C34.2859 24.8662 33.8408 25.0769 33.5126 25.452C33.1844 25.8271 33 26.3358 33 26.8662V27.8662" stroke="black" stroke-linecap="round" stroke-linejoin="round"/>
<path d="M36.704 23C37.8086 23 38.704 22.1046 38.704 21C38.704 19.8954 37.8086 19 36.704 19C35.5994 19 34.704 19.8954 34.704 21C34.704 22.1046 35.5994 23 36.704 23Z" stroke="black" stroke-linecap="round" stroke-linejoin="round"/>
<defs>
<clipPath id="clip0_19_114">
<rect width="10.4348" height="9.42857" fill="white" transform="translate(42.3478 10.1428)"/>
</clipPath>
<clipPath id="clip1_19_114">
<rect width="6" height="12" fill="white" transform="translate(33 7)"/>
</clipPath>
</defs>
</svg>
