<svg viewBox="-0.5 -0.5 16 16" fill="none" xmlns="http://www.w3.org/2000/svg" id="Cart-Large-Minimalistic--Streamline-Solar-Ar" height="16" width="16">
<desc>Cart Large Minimalistic Streamline Icon: https://streamlinehq.com</desc>
<path d="M4.6318125 11.8024375C5.225875 11.8024375 5.7074375 12.283999999999999 5.7074375 12.8780625S5.225875 13.953625 4.6318125 13.953625S3.5561875 13.4720625 3.5561875 12.8780625S4.03775 11.8024375 4.6318125 11.8024375Z" stroke="white" stroke-width="1"></path>
<path d="M11.085374999999999 11.8025C11.6794375 11.8025 12.161 12.283999999999999 12.161 12.878125C12.161 13.472124999999998 11.6794375 13.953687500000001 11.085374999999999 13.953687500000001S10.009812499999999 13.472124999999998 10.009812499999999 12.878125C10.009812499999999 12.283999999999999 10.491375000000001 11.8025 11.085374999999999 11.8025Z" stroke="white" stroke-width="1"></path>
<path d="M0.8752500000000001 1.1123125L1.053625 0.6049375L0.8752500000000001 1.1123125ZM0.8663125 0.5390625C0.586125 0.44056249999999997 0.279125 0.587875 0.1805625 0.8680625C0.0820625 1.14825 0.229375 1.4553125 0.5095625 1.5538125L0.8663125 0.5390625ZM2.5421875 1.995125L2.9861874999999998 1.6916875L2.5421875 1.995125ZM3.4756875 9.3545L3.0854375000000003 9.7245L3.4756875 9.3545ZM14.066812500000001 5.9818125L14.593499999999999 6.0904375L14.594249999999999 6.087125L14.066812500000001 5.9818125ZM13.708437499999999 7.7205625L14.235187499999999 7.829125L13.708437499999999 7.7205625ZM14.121812499999999 3.6975000000000002L13.695625 4.0254375L14.121812499999999 3.6975000000000002ZM12.973875 9.687375L12.634125000000001 9.2705L12.973875 9.687375ZM3.3468750000000003 5.893812499999999V3.9421875H2.2713125V5.893812499999999H3.3468750000000003ZM1.053625 0.6049375L0.8663125 0.5390625L0.5095625 1.5538125L0.696875 1.619625L1.053625 0.6049375ZM7.096749999999999 10.547562500000002H10.89925V9.472000000000001H7.096749999999999V10.547562500000002ZM3.3468750000000003 3.9421875C3.3468750000000003 3.435125 3.3476250000000003 3.0120000000000005 3.3103749999999996 2.668125C3.271875 2.3121875 3.1883749999999997 1.9875625 2.9861874999999998 1.6916875L2.098125 2.2985625C2.162875 2.39325 2.2128125 2.5233125000000003 2.2410625 2.783875C2.2705625 3.0564999999999998 2.2713125 3.411625 2.2713125 3.9421875H3.3468750000000003ZM0.696875 1.619625C1.1755625 1.7879375 1.4901875 1.8995000000000002 1.7216875 2.0130624999999998C1.9391249999999998 2.11975 2.0349999999999997 2.206125 2.098125 2.2984999999999998L2.9861874999999998 1.6916875C2.7824375000000003 1.3935 2.5115 1.2025 2.1955 1.0474375C1.893625 0.8993125000000001 1.5082499999999999 0.76475 1.053625 0.6049375L0.696875 1.619625ZM2.2713125 5.893812499999999C2.2713125 6.9353750000000005 2.2810625 7.686375 2.3793125 8.2601875C2.4842500000000003 8.8728125 2.6937499999999996 9.3114375 3.0854375000000003 9.7245L3.866 8.9845C3.636375 8.742375 3.5125625 8.50525 3.4395 8.078625C3.3598125000000003 7.6131875 3.3468750000000003 6.961500000000001 3.3468750000000003 5.893812499999999H2.2713125ZM7.096749999999999 9.472000000000001C6.08075 9.472000000000001 5.375875 9.4706875 4.8447499999999994 9.395375C4.3321875 9.3226875 4.061375 9.190625 3.866 8.9845L3.0854375000000003 9.7245C3.5112500000000004 10.1736875 4.0510625000000005 10.369250000000001 4.69375 10.4603125C5.317875 10.548874999999999 6.1128125 10.547562500000002 7.096749999999999 10.547562500000002V9.472000000000001ZM2.8090625000000005 3.8215H11.507624999999999V2.745875H2.8090625000000005V3.8215ZM13.540062500000001 5.87325L13.181750000000001 7.612L14.235187499999999 7.829125L14.593499999999999 6.0904375L13.540062500000001 5.87325ZM11.507624999999999 3.8215C12.1216875 3.8215 12.6621875 3.8221875 13.0886875 3.869875C13.300625 3.8935625000000003 13.45925 3.9265 13.5706875 3.9656249999999997C13.6864375 4.0063125 13.704875000000001 4.0375 13.695625 4.0254375L14.548125 3.3695625000000002C14.379625 3.1505625 14.1426875 3.0265625000000003 13.9273125 2.950875C13.7075 2.873625 13.458937500000001 2.8289999999999997 13.2081875 2.8009375C12.70925 2.7451874999999997 12.10175 2.745875 11.507624999999999 2.745875V3.8215ZM14.594249999999999 6.087125C14.715562499999999 5.479125 14.818625 4.9689375 14.8438125 4.5603125C14.86975 4.14 14.821875 3.7255 14.548125 3.3695625000000002L13.695625 4.0254375C13.7400625 4.08325 13.7891875 4.187437500000001 13.770249999999999 4.4940625C13.750625000000001 4.812437500000001 13.667 5.2375625 13.5394375 5.8765625L14.594249999999999 6.087125ZM10.89925 10.547562500000002C11.4454375 10.547562500000002 11.903812499999999 10.5485 12.2733125 10.50325C12.6574375 10.4563125 13.0078125 10.353562499999999 13.313625 10.104312499999999L12.634125000000001 9.2705C12.544375 9.343625 12.4170625 9.4020625 12.142625 9.4356875C11.853499999999999 9.4710625 11.472375 9.472000000000001 10.89925 9.472000000000001V10.547562500000002ZM13.181750000000001 7.612C13.065999999999999 8.1733125 12.988125 8.5464375 12.895125 8.8224375C12.806875 9.084375 12.723875 9.1973125 12.634125000000001 9.2705L13.313625 10.104312499999999C13.6194375 9.8550625 13.790812500000001 9.532625 13.914437500000002 9.1659375C14.0333125 8.813125000000001 14.124875 8.3640625 14.235187499999999 7.829125L13.181750000000001 7.612Z" fill="white" stroke-width="1"></path>
</svg>