<svg viewBox="-0.5 -0.5 16 16" fill="none" xmlns="http://www.w3.org/2000/svg" id="Eye--Streamline-Solar-Ar" height="16" width="16"><desc>Eye Streamline Icon: https://streamlinehq.com</desc><path d="M1.5344375 9.7533125C0.9533125 8.998375 0.6628125 8.620875 0.6628125 7.5S0.9533750000000001 6.001625000000001 1.5344375 5.2466875C2.69475 3.73925 4.640750000000001 2.03025 7.5 2.03025C10.35925 2.03025 12.3051875 3.73925 13.465499999999999 5.2466875C14.046624999999999 6.001625000000001 14.337187499999999 6.379125 14.337187499999999 7.5S14.046624999999999 8.998375 13.465562499999999 9.7533125C12.3051875 11.26075 10.35925 12.96975 7.5 12.96975C4.640750000000001 12.96975 2.69475 11.26075 1.5344375 9.7533125Z" stroke="white" stroke-width="1"></path><path d="M9.551187500000001 7.5C9.551187500000001 8.632875 8.632875 9.551187500000001 7.5 9.551187500000001S5.4488125 8.632875 5.4488125 7.5S6.367125 5.4488125 7.5 5.4488125S9.551187500000001 6.367125 9.551187500000001 7.5Z" stroke="white" stroke-width="1"></path></svg>