<svg viewBox="-0.5 -0.5 16 16" fill="none" xmlns="http://www.w3.org/2000/svg" id="Refresh--Streamline-Solar-Ar" height="16" width="16"><desc>Refresh Streamline Icon: https://streamlinehq.com</desc><path d="M1.8113124999999999 7.0441875H1.2985H1.8113124999999999ZM1.8113124999999999 8.1836875L1.4501249999999999 8.547749999999999C1.6500625 8.7460625 1.9725625 8.7460625 2.1724375 8.547749999999999L1.8113124999999999 8.18375ZM3.321 7.4081874999999995C3.5220000000000002 7.20875 3.5233125 6.8840625 3.3238125000000003 6.683C3.1243749999999997 6.4819375 2.7996875 6.4806875 2.598625 6.6801875L3.321 7.4081874999999995ZM1.0239375000000002 6.6801875C0.8229375 6.48075 0.49825 6.4819375 0.29874999999999996 6.683C0.09931250000000001 6.8840625 0.1005625 7.20875 0.301625 7.4081874999999995L1.0239375000000002 6.6801875ZM12.023124999999999 4.35C12.1714375 4.5912500000000005 12.487250000000001 4.6665624999999995 12.7285625 4.51825C12.96975 4.3699375 13.045124999999999 4.054125 12.8968125 3.812875L12.023124999999999 4.35ZM7.553875 0.83375C4.1029375 0.83375 1.2985 3.6105 1.2985 7.0441875H2.3240625C2.3240625 4.1844375 4.66175 1.8593125 7.553875 1.8593125V0.83375ZM1.2985 7.0441875V8.1836875H2.3240625V7.0441875H1.2985ZM2.1724375 8.547749999999999L3.321 7.4081874999999995L2.598625 6.6801875L1.4501249999999999 7.8196875L2.1724375 8.547749999999999ZM2.1724375 7.8196875L1.0239375000000002 6.6801875L0.301625 7.4081874999999995L1.4501249999999999 8.547749999999999L2.1724375 7.8196875ZM12.8968125 3.812875C11.7985 2.026375 9.815875 0.83375 7.553875 0.83375V1.8593125C9.4474375 1.8593125 11.105 2.8565 12.023124999999999 4.35L12.8968125 3.812875Z" fill="white" stroke-width="1"></path><path d="M13.184312499999999 6.8163125L13.54475 6.4515625C13.345062500000001 6.254125 13.0235625 6.254125 12.823875000000001 6.4515625L13.184312499999999 6.8163125ZM11.670875 7.591125C11.4695 7.7901875 11.467624999999998 8.114875 11.666687499999998 8.3163125C11.865749999999998 8.5176875 12.1904375 8.519625 12.391875 8.3205L11.670875 7.591125ZM13.97675 8.3205C14.178125 8.519625 14.502875 8.5176875 14.701875 8.3163125C14.901 8.114875 14.899125 7.7901875 14.6976875 7.5910625L13.97675 8.3205ZM2.9313125 10.649249999999999C2.7825625 10.408249999999999 2.466625 10.3334375 2.225625 10.48225C1.9846249999999999 10.6309375 1.9098125 10.946875 2.0585625 11.187875L2.9313125 10.649249999999999ZM7.4197500000000005 14.16625C10.881 14.16625 13.6970625 11.391375 13.6970625 7.9558125H12.6715C12.6715 10.8136875 10.325875 13.140687499999999 7.4197500000000005 13.140687499999999V14.16625ZM13.6970625 7.9558125V6.8163125H12.6715V7.9558125H13.6970625ZM12.823875000000001 6.451625L11.670875 7.591125L12.391875 8.320562500000001L13.54475 7.180999999999999L12.823875000000001 6.451625ZM12.823875000000001 7.180999999999999L13.97675 8.320562500000001L14.6976875 7.5910625L13.54475 6.451625L12.823875000000001 7.180999999999999ZM2.0585625 11.187875C3.161125 12.974499999999999 5.1507499999999995 14.16625 7.4197500000000005 14.16625V13.140687499999999C5.5173125 13.140687499999999 3.852875 12.142625 2.9313125 10.649249999999999L2.0585625 11.187875Z" fill="white" stroke-width="1"></path></svg>