<svg viewBox="-0.5 -0.5 16 16" fill="none" xmlns="http://www.w3.org/2000/svg" id="Heart--Streamline-Solar-Ar" height="16" width="16"><desc>Heart Streamline Icon: https://streamlinehq.com</desc><path d="M5.422687499999999 12.298875L5.740125000000001 11.896125L5.422687499999999 12.298875ZM7.5 3.13L7.1305 3.4856249999999998C7.227187499999999 3.5860625 7.3605624999999995 3.6428125 7.5 3.6428125C7.6394375000000005 3.6428125 7.772812500000001 3.5860625 7.8695 3.4856249999999998L7.5 3.13ZM9.577375 12.298875L9.8948125 12.701562500000001L9.577375 12.298875ZM5.740125000000001 11.896125C4.703875 11.07925 3.5706875 10.2815 2.67175 9.26925C1.7903749999999998 8.2768125 1.1755625 7.1186875 1.1755625 5.6163125H0.15C0.15 7.438812500000001 0.9092500000000001 8.829125 1.9049375 9.9501875C2.883 11.051562500000001 4.12975 11.9326875 5.1051875 12.701562500000001L5.740125000000001 11.896125ZM1.1755625 5.6163125C1.1755625 4.1457500000000005 2.0065625000000002 2.9125 3.1408125 2.394C4.2428125 1.8903125 5.7234375 2.0236875 7.1305 3.4856249999999998L7.8695 2.7744375C6.1998750000000005 1.0398125 4.2619375 0.7539374999999999 2.7145 1.4612500000000002C1.1993125 2.153875 0.15 3.7620625000000003 0.15 5.6163125H1.1755625ZM5.1051875 12.701562500000001C5.4554375 12.977687499999998 5.8313749999999995 13.272062499999999 6.2124375 13.49475C6.593312500000001 13.7173125 7.0279375 13.898124999999999 7.5 13.898124999999999V12.8725625C7.2883125 12.8725625 7.03925 12.7900625 6.729875 12.609250000000001C6.420624999999999 12.4285625 6.0998125000000005 12.1796875 5.740125000000001 11.896125L5.1051875 12.701562500000001ZM9.8948125 12.701562500000001C10.8701875 11.9326875 12.117 11.051562500000001 13.095062500000001 9.9501875C14.09075 8.829125 14.850000000000001 7.438812500000001 14.850000000000001 5.6163125H13.8244375C13.8244375 7.1186875 13.209625 8.2768125 12.32825 9.26925C11.42925 10.2815 10.296125 11.07925 9.259875 11.896125L9.8948125 12.701562500000001ZM14.850000000000001 5.6163125C14.850000000000001 3.7620625000000003 13.800687499999999 2.153875 12.2855 1.4612500000000002C10.738062500000002 0.7539374999999999 8.8000625 1.0398125 7.1305 2.7744375L7.8695 3.4856249999999998C9.2765 2.0236875 10.7571875 1.8903125 11.859124999999999 2.394C12.9934375 2.9125 13.8244375 4.1457500000000005 13.8244375 5.6163125H14.850000000000001ZM9.259875 11.896125C8.9001875 12.1796875 8.579375 12.4285625 8.270125 12.609250000000001C7.96075 12.7900625 7.7116875 12.8725625 7.5 12.8725625V13.898124999999999C7.9720625 13.898124999999999 8.4066875 13.7173125 8.7875625 13.49475C9.168625 13.272062499999999 9.5445 12.977625 9.8948125 12.701562500000001L9.259875 11.896125Z" fill="white" stroke-width="1"></path></svg>